<?xml version="1.0" standalone="no"?>
<!DOCTYPE svg PUBLIC "-//W3C//DTD SVG 20010904//EN"
 "http://www.w3.org/TR/2001/REC-SVG-20010904/DTD/svg10.dtd">
<svg version="1.0" xmlns="http://www.w3.org/2000/svg"
 width="240.000000pt" height="240.000000pt" viewBox="0 0 240.000000 240.000000"
 preserveAspectRatio="xMidYMid meet">
<metadata>
Created by potrace 1.11, written by Peter Selinger 2001-2013
</metadata>
<g transform="translate(0.000000,240.000000) scale(0.100000,-0.100000)"
fill="#000000" stroke="none">
<path d="M1231 2277 c-27 -44 -27 -68 3 -96 22 -20 25 -21 40 -6 42 43 43 75
2 114 l-24 22 -21 -34z"/>
<path d="M1052 2142 c-35 -15 -63 -31 -63 -37 1 -5 26 -19 56 -30 29 -11 57
-23 60 -27 3 -3 -54 -20 -127 -38 -73 -17 -137 -35 -142 -40 -10 -10 2 -14
167 -49 l138 -29 57 29 c51 27 54 23 5 -7 -17 -11 -17 -13 6 -38 14 -14 31
-26 39 -26 18 0 82 39 82 49 0 4 -16 15 -36 25 -20 9 -34 19 -31 22 3 3 26 -6
51 -21 56 -33 74 -33 216 0 145 33 151 35 145 45 -4 7 -168 50 -255 66 -13 3
-26 7 -28 8 -1 2 32 16 73 31 42 15 73 31 68 35 -14 13 -140 60 -160 60 -10 0
-36 -11 -58 -25 -50 -31 -59 -31 -117 0 -57 30 -67 30 -146 -3z m263 -68 c48
-23 64 -44 34 -44 -5 0 -27 -11 -49 -25 l-39 -24 -60 27 c-33 15 -60 30 -61
33 0 5 45 29 56 29 3 0 2 -5 -1 -11 -4 -5 7 -24 25 -40 34 -33 33 -33 88 15
l23 20 -43 23 c-59 31 -41 29 27 -3z"/>
<path d="M460 1988 c0 -7 5 -33 11 -58 6 -25 11 -89 10 -143 l-1 -99 43 40
c48 46 86 81 144 133 61 55 60 57 -20 55 -93 -1 -113 -15 -87 -56 7 -12 13
-11 34 9 14 14 29 21 33 17 7 -7 -64 -76 -79 -76 -4 0 -8 8 -9 18 0 9 -4 39
-8 65 l-8 48 118 -3 c102 -2 116 -4 109 -18 -8 -14 -80 -81 -196 -181 -60 -51
-84 -89 -56 -89 29 -1 182 -58 241 -91 45 -25 270 -187 291 -209 3 -3 30 -24
60 -47 30 -23 68 -52 84 -65 l29 -24 -36 -36 c-19 -20 -70 -62 -114 -93 -43
-32 -100 -75 -128 -96 -125 -92 -234 -155 -325 -186 -52 -18 -102 -32 -111
-33 -15 0 -17 -14 -14 -111 2 -64 -3 -134 -10 -165 -7 -32 -9 -57 -3 -60 5 -3
32 0 61 7 29 7 96 12 150 12 53 -1 97 0 97 2 0 4 -66 76 -158 173 l-62 66 0
-87 0 -87 33 7 c17 3 33 7 35 8 2 1 -9 17 -23 34 -15 17 -22 31 -15 31 16 0
81 -73 72 -82 -4 -4 -35 -11 -68 -14 l-59 -6 3 113 c1 62 4 114 5 116 2 1 64
-58 137 -132 74 -74 137 -131 140 -127 3 4 18 46 33 93 32 102 94 205 231 382
131 171 167 210 188 202 33 -13 287 -358 354 -480 18 -33 44 -99 58 -146 l26
-86 118 2 c68 2 137 -2 165 -10 26 -6 50 -9 52 -5 2 4 -2 30 -9 58 -8 28 -13
92 -12 142 0 51 -1 96 -4 100 -3 5 -25 -10 -50 -32 -67 -60 -180 -169 -180
-174 0 -2 36 -4 80 -4 l80 0 0 35 c0 32 -2 35 -19 25 -11 -5 -27 -17 -35 -26
-14 -13 -16 -13 -16 -1 0 8 16 29 37 47 41 37 47 33 58 -42 8 -55 3 -60 -72
-60 -108 -1 -153 2 -153 11 0 8 84 92 198 198 28 27 52 56 52 64 0 10 -25 23
-79 38 -56 16 -112 44 -194 96 -112 71 -353 252 -391 294 -19 21 -19 22 10 52
44 46 325 256 416 310 74 44 160 79 234 94 l31 6 -5 102 c-3 68 1 122 11 164
17 72 14 75 -55 57 -26 -6 -76 -12 -110 -12 -115 -1 -128 -2 -128 -9 0 -5 25
-35 55 -68 31 -33 74 -81 97 -107 23 -27 45 -48 48 -48 3 0 6 37 5 83 -1 66
-4 81 -16 78 -8 -2 -20 -4 -26 -4 -19 -1 -16 -24 7 -47 13 -13 15 -20 7 -20
-7 0 -29 16 -47 35 -29 30 -32 37 -20 45 8 5 22 10 30 10 8 1 32 3 53 6 42 6
40 14 38 -124 0 -112 -7 -115 -82 -39 -35 35 -93 95 -127 133 l-64 68 -29 -90
c-16 -49 -47 -121 -70 -159 -43 -71 -178 -256 -277 -378 l-55 -68 -25 23 c-13
13 -45 50 -70 83 -25 33 -49 62 -52 65 -22 19 -175 237 -203 290 -40 73 -73
158 -82 209 -3 19 -8 37 -10 41 -2 3 -52 7 -110 8 -59 1 -119 4 -133 6 -15 3
-46 7 -69 11 -33 5 -43 4 -43 -7z m298 -188 c10 -27 9 -30 -11 -30 -12 0 -33
3 -46 7 l-23 6 28 27 c33 32 38 31 52 -10z m1039 -22 c13 -12 23 -25 23 -29 0
-5 -82 -39 -96 -39 -1 0 8 20 19 45 12 25 23 45 26 45 2 0 15 -10 28 -22z
m-1112 -39 c4 -17 5 -32 3 -33 -1 -2 -18 1 -37 6 l-33 9 23 25 c29 31 36 30
44 -7z m98 -52 c-4 -6 -47 0 -65 10 -5 2 4 15 20 28 l27 24 12 -27 c6 -15 9
-30 6 -35z m65 -36 c7 -21 12 -42 12 -45 0 -9 -62 3 -74 14 -8 8 31 70 44 70
4 0 12 -17 18 -39z m415 -452 c-17 -17 -37 -1 -22 17 8 10 15 12 23 4 7 -7 7
-13 -1 -21z m-471 -474 c-2 -22 -6 -42 -8 -44 -2 -2 -21 12 -44 32 l-40 37 33
9 c53 16 62 10 59 -34z m1065 22 l43 -22 -24 -30 -24 -29 -26 52 c-14 29 -23
52 -19 52 5 -1 27 -11 50 -23z m-1168 -52 c-2 -25 -6 -45 -9 -45 -3 0 -21 15
-39 34 -31 32 -32 35 -14 45 10 6 28 11 41 11 21 0 23 -4 21 -45z m1089 -93
l-32 -32 -16 39 c-8 22 -18 43 -22 47 -5 4 -8 13 -8 19 0 8 20 3 55 -14 l54
-26 -31 -33z m-1005 23 c-4 -46 -19 -52 -49 -20 l-27 29 29 13 c39 16 49 11
47 -22z"/>
<path d="M1053 1862 c-59 -19 -90 -42 -57 -43 10 0 26 -2 34 -4 121 -29 126
-29 158 -6 18 12 32 26 32 31 0 10 -75 40 -98 39 -9 -1 -40 -8 -69 -17z"/>
<path d="M1303 1863 c-18 -9 -33 -19 -33 -22 0 -3 16 -17 35 -29 27 -19 42
-23 75 -18 49 7 122 27 133 36 9 8 -128 50 -158 49 -11 0 -35 -8 -52 -16z"/>
<path d="M1218 1799 c-35 -26 -35 -35 2 -54 37 -19 38 -19 78 5 35 22 33 33
-15 58 -29 16 -33 15 -65 -9z"/>
<path d="M1225 1680 l-27 -39 21 -35 c12 -19 28 -36 36 -40 14 -5 65 46 65 65
0 15 -49 89 -59 89 -4 0 -21 -18 -36 -40z"/>
<path d="M390 1567 c-58 -87 -62 -97 -39 -97 11 0 31 17 48 40 l29 40 32 -40
c30 -38 60 -53 60 -30 0 12 -82 140 -90 140 -3 0 -21 -24 -40 -53z"/>
<path d="M1965 1560 l-29 -30 24 -25 c29 -31 40 -31 75 -1 26 22 27 27 14 43
-41 53 -46 53 -84 13z m55 -20 c0 -5 -9 -14 -20 -20 -17 -9 -20 -8 -20 10 0
13 7 20 20 20 11 0 20 -4 20 -10z"/>
<path d="M1232 1493 c-10 -15 -27 -42 -36 -60 -15 -31 -15 -32 7 -35 37 -5
137 3 137 12 0 13 -64 104 -76 107 -7 2 -21 -9 -32 -24z"/>
<path d="M410 1491 c-7 -15 -5 -25 9 -42 l18 -23 7 22 c8 25 -1 62 -14 62 -5
0 -14 -9 -20 -19z"/>
<path d="M2080 1492 c0 -12 11 -51 24 -87 13 -36 21 -65 17 -65 -3 0 -19 21
-36 45 -53 79 -64 58 -35 -67 14 -63 12 -67 -13 -24 -35 62 -50 59 -45 -8 1
-31 0 -56 -4 -56 -5 0 -8 7 -8 15 0 14 -13 20 -34 16 -5 -1 -4 5 3 13 11 13 9
30 -13 100 -15 47 -33 90 -41 96 -10 8 -31 -8 -96 -75 -78 -81 -107 -115 -95
-115 3 0 17 5 33 11 43 17 143 48 143 44 0 -3 -40 -33 -103 -76 -5 -4 -7 -11
-4 -16 4 -6 32 -4 73 4 84 17 98 13 49 -15 -20 -13 -35 -25 -32 -29 19 -18
197 15 197 37 0 5 8 6 19 3 10 -3 33 3 51 12 18 9 55 23 82 31 27 9 51 21 54
28 4 11 -93 117 -164 180 -22 19 -22 19 -22 -2z"/>
<path d="M113 1369 c-44 -74 -41 -107 6 -50 14 17 29 31 33 31 4 0 14 -13 23
-30 9 -18 23 -30 35 -30 17 0 18 3 9 28 -19 45 -52 113 -58 116 -3 2 -25 -27
-48 -65z"/>
<path d="M676 1398 c-41 -90 -46 -108 -30 -108 8 0 24 16 36 36 l21 35 25 -35
c14 -20 33 -36 44 -36 10 0 18 2 18 5 0 12 -82 135 -90 135 -5 0 -16 -15 -24
-32z"/>
<path d="M370 1355 c0 -20 5 -25 25 -25 26 0 29 7 19 34 -10 27 -44 20 -44 -9z"/>
<path d="M443 1365 c-7 -20 5 -35 28 -35 15 0 20 6 17 22 -3 24 -36 34 -45 13z"/>
<path d="M506 1346 c-10 -23 -22 -35 -38 -38 -23 -3 -23 -3 -25 -178 -3 -191
0 -220 22 -220 21 0 18 -13 -8 -38 l-24 -22 -26 21 c-32 24 -35 39 -8 39 19 0
19 9 19 200 0 198 0 200 -21 200 -29 0 -43 10 -51 38 -11 33 -34 27 -41 -11
-4 -18 -6 -37 -5 -42 2 -6 2 -22 1 -37 -1 -24 -5 -27 -43 -30 l-43 -3 -5 -78
-5 -77 -28 24 c-24 21 -32 23 -47 13 -15 -9 -17 -14 -7 -26 15 -20 201 -199
247 -238 69 -59 66 -60 160 29 162 153 230 220 230 228 0 4 -6 12 -13 19 -10
8 -22 3 -48 -19 -19 -16 -39 -29 -44 -30 -6 0 -9 29 -7 74 4 82 0 88 -54 88
l-34 0 0 58 c0 40 -5 64 -16 74 -21 21 -22 21 -38 -18z m-108 -208 c-7 -19
-45 -21 -51 -4 -5 12 1 16 24 16 20 0 29 -4 27 -12z m110 0 c-7 -19 -45 -21
-51 -4 -5 12 1 16 24 16 20 0 29 -4 27 -12z m-118 -63 c10 -12 9 -15 -6 -16
-32 -2 -48 2 -64 17 -12 12 -10 14 22 14 19 0 41 -7 48 -15z m150 5 c0 -5 -12
-12 -27 -15 -71 -15 -67 -16 -57 9 7 18 84 23 84 6z m-142 -79 c-6 -29 -90
-26 -101 3 -4 11 6 14 49 14 45 -1 54 -4 52 -17z m158 8 c7 -12 -27 -26 -65
-25 -24 1 -35 6 -37 18 -2 15 6 17 47 16 27 0 52 -4 55 -9z"/>
<path d="M131 1303 c-11 -21 4 -57 20 -48 12 8 12 52 0 60 -6 3 -14 -3 -20
-12z"/>
<path d="M697 1299 c-6 -24 1 -49 14 -49 12 0 12 57 0 64 -5 3 -11 -4 -14 -15z"/>
<path d="M1007 1268 c-8 -13 -27 -42 -41 -65 l-26 -43 74 0 c41 0 78 4 81 10
7 12 -4 34 -43 83 l-31 38 -14 -23z"/>
<path d="M1468 1266 c-32 -44 -57 -95 -49 -100 11 -7 140 0 148 8 7 7 -63 116
-75 116 -4 0 -15 -11 -24 -24z"/>
<path d="M2289 1242 l-32 -29 19 -26 c23 -32 50 -34 80 -6 26 24 22 52 -12 74
-22 14 -25 14 -55 -13z m51 -29 c0 -14 -27 -29 -36 -21 -2 3 -2 12 1 20 7 18
35 19 35 1z"/>
<path d="M1645 1247 c-40 -49 -39 -46 -15 -72 29 -31 38 -31 73 -1 33 28 34
36 4 64 -26 24 -47 27 -62 9z m35 -47 c-6 -11 -15 -20 -20 -20 -6 0 -10 9 -10
20 0 13 7 20 20 20 18 0 19 -3 10 -20z"/>
<path d="M26 1211 c-15 -17 -15 -20 3 -42 19 -23 21 -23 37 -7 15 14 16 22 6
43 -14 30 -23 31 -46 6z"/>
<path d="M799 1208 c-9 -18 -8 -24 6 -34 35 -26 62 11 31 42 -19 19 -23 18
-37 -8z"/>
<path d="M2057 1211 c-38 -6 -42 -11 -33 -43 6 -25 35 -22 79 8 57 38 42 49
-46 35z"/>
<path d="M1935 1178 c-16 -6 -39 -14 -50 -19 -11 -5 -49 -19 -84 -32 -36 -13
-66 -28 -68 -33 -4 -12 170 -184 185 -184 6 0 -2 37 -18 88 -32 94 -32 94 36
7 12 -16 26 -26 30 -22 6 5 -4 73 -23 152 -2 11 7 1 22 -22 37 -61 49 -58 45
12 -3 67 -13 74 -75 53z"/>
<path d="M2131 1159 c-46 -10 -86 -21 -89 -24 -3 -3 0 -20 6 -38 35 -103 54
-153 61 -160 8 -8 191 169 191 184 0 12 6 13 -96 -21 -61 -20 -81 -24 -64 -12
45 31 93 79 84 84 -5 2 -47 -4 -93 -13z"/>
<path d="M755 1161 c-7 -12 24 -43 36 -35 5 3 5 13 -1 25 -11 20 -25 25 -35
10z"/>
<path d="M80 1140 c-9 -16 -8 -22 6 -27 18 -7 35 13 27 34 -7 19 -21 16 -33
-7z"/>
<path d="M1213 1013 c-40 -64 -50 -95 -29 -87 27 10 18 -7 -39 -71 -54 -62
-65 -87 -44 -100 7 -5 5 -15 -5 -31 -21 -31 -20 -43 5 -70 20 -21 20 -23 4
-48 -20 -31 -14 -55 27 -102 l31 -35 -39 -41 c-21 -23 -63 -65 -91 -94 -56
-57 -59 -73 -19 -106 40 -33 60 -23 153 78 l88 95 48 -53 c104 -113 140 -148
153 -148 8 0 27 11 42 25 33 31 32 32 -78 160 -41 47 -79 93 -83 101 -6 10 4
27 32 55 44 43 50 63 25 77 -13 7 -12 13 10 39 31 37 31 41 7 72 -13 17 -17
35 -14 61 5 32 0 40 -46 87 -41 40 -49 52 -36 57 15 5 14 10 -6 46 -13 22 -33
49 -45 61 l-22 20 -29 -48z m108 -153 l57 -60 -35 -46 c-24 -32 -38 -43 -46
-35 -7 7 -5 18 7 35 9 14 16 34 16 44 0 21 -49 72 -71 72 -15 0 -69 -62 -69
-80 0 -7 41 -52 90 -101 50 -49 90 -92 90 -97 0 -4 -23 -34 -51 -67 -28 -33
-72 -85 -97 -115 -107 -126 -154 -170 -169 -159 -20 17 -17 24 40 81 28 29 93
98 144 152 l92 98 -94 92 c-52 51 -95 96 -95 100 0 9 120 146 129 146 3 0 31
-27 62 -60z m-111 -224 c0 -7 -9 -21 -20 -31 -20 -18 -20 -18 -1 -51 28 -47 5
-57 -31 -14 -15 19 -28 38 -28 42 0 4 14 23 31 43 30 34 49 38 49 11z m239
-339 c30 -31 33 -39 21 -47 -18 -11 -65 31 -142 127 -70 88 -52 104 25 22 33
-35 76 -81 96 -102z"/>
<path d="M1958 906 l-27 -33 32 -31 33 -32 27 28 c15 15 27 35 27 44 0 15 -45
59 -59 57 -3 0 -18 -15 -33 -33z m48 -35 c-10 -16 -36 -13 -36 3 0 17 21 27
34 16 4 -5 5 -13 2 -19z"/>
<path d="M1470 605 c0 -28 35 -69 50 -60 16 10 11 40 -10 63 -27 29 -40 28
-40 -3z"/>
<path d="M997 606 c-3 -7 0 -20 6 -27 10 -11 9 -11 -4 -1 -13 10 -19 9 -29 -3
-10 -12 -8 -21 10 -50 21 -34 23 -35 41 -19 10 9 16 21 13 25 -3 5 4 9 15 9
26 0 26 6 -1 47 -24 35 -42 42 -51 19z"/>
<path d="M1534 609 c-8 -14 28 -63 50 -67 22 -5 20 20 -5 52 -22 28 -34 32
-45 15z"/>
<path d="M1437 584 c-14 -15 31 -83 51 -76 17 5 15 19 -10 52 -22 30 -30 35
-41 24z"/>
<path d="M922 527 c-25 -27 -27 -44 -8 -70 13 -16 15 -16 40 4 30 24 33 49 8
72 -17 16 -20 15 -40 -6z"/>
<path d="M1400 535 c0 -21 47 -68 61 -60 6 4 3 18 -9 38 -20 35 -52 49 -52 22z"/>
<path d="M1522 527 l-21 -22 20 -33 c22 -34 37 -40 57 -20 18 18 14 52 -8 76
-25 27 -22 27 -48 -1z"/>
<path d="M1046 515 c-14 -13 -26 -29 -26 -35 0 -18 36 -10 59 13 18 20 19 26
8 36 -11 8 -20 6 -41 -14z"/>
<path d="M1382 479 c11 -33 33 -48 49 -32 12 12 -26 63 -46 63 -11 0 -12 -6
-3 -31z"/>
<path d="M1070 474 c-18 -18 -21 -27 -13 -35 16 -16 65 16 61 38 -5 25 -21 24
-48 -3z"/>
<path d="M1461 462 c-37 -37 -38 -41 -8 -75 29 -34 38 -34 65 3 27 36 27 38
-3 74 l-23 29 -31 -31z"/>
<path d="M964 455 c-19 -30 -11 -60 22 -82 23 -15 26 -15 49 7 26 24 24 42 -8
78 -26 28 -43 28 -63 -3z"/>
<path d="M1202 310 c-29 -39 -54 -78 -55 -88 -1 -22 92 -152 109 -152 12 0 76
72 106 121 15 23 15 28 0 59 -9 18 -36 55 -61 81 l-46 49 -53 -70z"/>
</g>
</svg>
